HIERARCHY
ROOT hip
{
	OFFSET 0.000000 0.000000 0.000000
	CHANNELS 6 Xposition Yposition Zposition Xrotation Zrotation Yrotation 
	JOINT abdomen
	{
		OFFSET 0.000000 3.422050 0.000000
		CHANNELS 3 Xrotation Zrotation Yrotation 
		JOINT chest
		{
			OFFSET 0.000000 8.486693 -0.684411
			CHANNELS 3 Xrotation Zrotation Yrotation 
			JOINT neck
			{
				OFFSET 0.000000 10.266162 -0.273764
				CHANNELS 3 Xrotation Zrotation Yrotation 
				JOINT head
				{
					OFFSET 0.000000 3.148285 0.000000
					CHANNELS 3 Xrotation Zrotation Yrotation 
					End Site
					{
						OFFSET 0.000000 3.148289 0.000000
					}
				}
			}
			JOINT lCollar
			{
				OFFSET 3.422053 6.707223 -0.821293
				CHANNELS 3 Yrotation Zrotation Xrotation 
				JOINT lShldr
				{
					OFFSET 3.285171 0.000000 0.000000
					CHANNELS 3 Zrotation Yrotation Xrotation 
					JOINT lForeArm
					{
						OFFSET 10.129278 0.000000 0.000000
						CHANNELS 3 Yrotation Zrotation Xrotation 
						JOINT lHand
						{
							OFFSET 8.486692 0.000000 0.000000
							CHANNELS 3 Zrotation Yrotation Xrotation 
							End Site
							{
								OFFSET 4.106464 0.000000 0.000000
							}
						}
					}
				}
			}
			JOINT rCollar
			{
				OFFSET -3.558935 6.707223 -0.821293
				CHANNELS 3 Yrotation Zrotation Xrotation 
				JOINT rShldr
				{
					OFFSET -3.148289 0.000000 0.000000
					CHANNELS 3 Zrotation Yrotation Xrotation 
					JOINT rForeArm
					{
						OFFSET -10.266159 0.000000 0.000000
						CHANNELS 3 Yrotation Zrotation Xrotation 
						JOINT rHand
						{
							OFFSET -8.349810 0.000000 0.000000
							CHANNELS 3 Zrotation Yrotation Xrotation 
							End Site
							{
								OFFSET -4.106464 0.000000 0.000000
							}
						}
					}
				}
			}
		}
	}
	JOINT lThigh
	{
		OFFSET 5.338403 -1.642589 1.368821
		CHANNELS 3 Xrotation Zrotation Yrotation 
		JOINT lShin
		{
			OFFSET -2.053232 -20.121670 0.000000
			CHANNELS 3 Xrotation Zrotation Yrotation 
			JOINT lFoot
			{
				OFFSET 0.000000 -19.300380 -1.231939
				CHANNELS 3 Xrotation Yrotation Zrotation 
				End Site
				{
					OFFSET 0.000000 -2.463878 4.653993
				}
			}
		}
	}
	JOINT rThigh
	{
		OFFSET -5.338403 -1.642589 1.368821
		CHANNELS 3 Xrotation Zrotation Yrotation 
		JOINT rShin
		{
			OFFSET 2.053232 -20.121670 0.000000
			CHANNELS 3 Xrotation Zrotation Yrotation 
			JOINT rFoot
			{
				OFFSET 0.000000 -19.300380 -1.231939
				CHANNELS 3 Xrotation Yrotation Zrotation 
				End Site
				{
					OFFSET 0.000000 -2.463878 4.653993
				}
			}
		}
	}
}
MOTION
Frames: 15
Frame Time: 0.033264
0.000000 43.528500 0.000000 0.000000 0.000000 0.000000 0.000000 0.000000 0.000000 0.000000 0.000000 0.000000 0.000000 0.000000 0.000000 0.000000 0.000000 0.000000 0.000000 0.000000 0.000000 0.000000 0.000000 0.000000 0.000000 0.000000 0.000000 0.000000 0.000000 0.000000 0.000000 0.000000 0.000000 0.000000 0.000000 0.000000 0.000000 0.000000 0.000000 0.000000 0.000000 0.000000 0.000000 0.000000 0.000000 0.000000 0.000000 0.000000 0.000000 0.000000 0.000000 0.000000 0.000000 0.000000 0.000000 0.000000 0.000000 0.000000 0.000000 0.000000 
19.995884 22.721600 11.561401 121.001572 -0.000273 -167.007980 19.656105 -0.000996 -8.001244 11.569802 -0.002251 -6.451920 13.997003 0.000000 0.000000 -0.159114 0.000818 0.589270 7.739225 -8.081115 7.028652 -49.762798 1.546846 54.972618 -18.531773 0.454304 35.980930 1.477127 3.782247 0.068021 1.276016 19.343191 -0.982015 36.582432 -1.899096 55.035149 152.795914 -36.109241 12.975818 46.833168 -0.699337 -9.732500 -78.507889 8.349346 30.967712 33.325722 1.540205 -41.596474 -3.841290 5.887718 21.580154 -76.723114 11.588081 -15.977476 33.851250 -1.590056 41.560421 -4.089809 -6.673383 -23.617579 
19.995884 22.721600 11.561401 121.001572 -0.000273 -167.007980 18.879911 -0.001074 -8.001298 13.274327 -0.002176 -6.451824 13.997005 -0.395664 0.000003 -0.305473 -0.058116 1.164278 7.021137 -7.662073 6.373760 -50.055088 1.578634 54.973614 -18.531773 0.454304 35.980930 1.642532 3.850702 -0.593357 1.276016 19.343195 -0.982015 36.582432 -1.899096 55.035149 152.296021 -36.109165 12.975815 46.833168 -0.699337 -9.732500 -79.007507 8.349278 30.967716 33.325726 1.540204 -41.596474 -3.841290 5.887719 21.580154 -77.166534 11.588314 -15.977265 33.851250 -1.590057 41.560429 -4.089809 -6.673383 -23.617579 
19.995884 22.721600 11.561401 121.001572 -0.000273 -167.007980 18.103142 -0.001153 -8.001347 14.985006 -0.002103 -6.451724 13.997007 -0.791679 0.000006 -0.452720 -0.115695 1.740621 6.307753 -7.234442 5.724062 -50.347412 1.610427 54.974453 -18.531773 0.454304 35.980930 1.807244 3.921099 -1.254980 1.276016 19.343191 -0.982015 36.582432 -1.899096 55.035149 151.795990 -36.109093 12.975814 46.833168 -0.699337 -9.732500 -79.507286 8.349217 30.967722 33.325722 1.540206 -41.596478 -3.841290 5.887718 21.580154 -77.610054 11.588546 -15.977051 33.851250 -1.590056 41.560421 -4.089809 -6.673383 -23.617580 
19.995884 22.721600 11.561401 121.001572 -0.000273 -167.007980 17.325872 -0.001232 -8.001399 16.701111 -0.002033 -6.451623 13.997007 -1.188035 0.000008 -0.600836 -0.171901 2.318269 5.599209 -6.798387 5.079695 -50.639751 1.642230 54.975109 -18.531775 0.454304 35.980934 1.971230 3.993428 -1.916797 1.276016 19.343195 -0.982015 36.582432 -1.899097 55.035152 151.295807 -36.109016 12.975812 46.833172 -0.699337 -9.732501 -80.007210 8.349154 30.967743 33.325729 1.540205 -41.596481 -3.841291 5.887719 21.580156 -78.053673 11.588782 -15.976844 33.851250 -1.590057 41.560429 -4.089810 -6.673383 -23.617582 
19.995884 22.721600 11.561401 121.001572 -0.000273 -167.007980 16.548172 -0.001312 -8.001446 18.421886 -0.001966 -6.451518 13.997012 -1.584723 0.000011 -0.749803 -0.226716 2.897190 4.895631 -6.354077 4.440792 -50.932129 1.674036 54.975616 -18.531773 0.454304 35.980930 2.134454 4.067675 -2.578757 1.276016 19.343191 -0.982015 36.582428 -1.899096 55.035149 150.795532 -36.108936 12.975812 46.833168 -0.699337 -9.732500 -80.507217 8.349088 30.967743 33.325718 1.540204 -41.596470 -3.841290 5.887718 21.580153 -78.497360 11.589015 -15.976632 33.851250 -1.590057 41.560421 -4.089809 -6.673383 -23.617577 
19.995884 22.721600 11.561401 121.001572 -0.000273 -167.007980 15.770113 -0.001393 -8.001494 20.146580 -0.001903 -6.451410 13.997015 -1.981735 0.000014 -0.899602 -0.280123 3.477357 4.197136 -5.901690 3.807477 -51.224541 1.705847 54.975967 -18.531773 0.454304 35.980930 2.296882 4.143826 -3.240809 1.276016 19.343191 -0.982015 36.582432 -1.899096 55.035149 150.295135 -36.108860 12.975814 46.833168 -0.699336 -9.732500 -81.007324 8.349020 30.967751 33.325722 1.540205 -41.596474 -3.841290 5.887718 21.580154 -78.941124 11.589252 -15.976426 33.851250 -1.590057 41.560421 -4.089809 -6.673383 -23.617579 
19.995884 22.721600 11.561401 121.001572 -0.000273 -167.007980 14.991765 -0.001475 -8.001542 21.874418 -0.001842 -6.451302 13.997017 -2.379061 0.000017 -1.050212 -0.332105 4.058736 3.503839 -5.441408 3.179870 -51.516960 1.737662 54.976147 -18.531773 0.454304 35.980930 2.458481 4.221866 -3.902904 1.276016 19.343191 -0.982015 36.582432 -1.899096 55.035149 149.794662 -36.108780 12.975812 46.833168 -0.699337 -9.732500 -81.507530 8.348960 30.967764 33.325722 1.540205 -41.596474 -3.841290 5.887718 21.580154 -79.384949 11.589494 -15.976222 33.851250 -1.590056 41.560421 -4.089809 -6.673383 -23.617579 
19.995884 22.721600 11.561401 121.001572 -0.000273 -167.007980 14.213202 -0.001557 -8.001586 23.604622 -0.001784 -6.451191 13.997024 -2.776693 0.000020 -1.201615 -0.382645 4.641295 2.815842 -4.973418 2.558079 -51.809399 1.769478 54.976173 -18.531773 0.454304 35.980930 2.619218 4.301783 -4.564991 1.276016 19.343191 -0.982015 36.582432 -1.899096 55.035149 149.294159 -36.108711 12.975816 46.833168 -0.699337 -9.732500 -82.007774 8.348893 30.967773 33.325722 1.540205 -41.596474 -3.841290 5.887719 21.580156 -79.828804 11.589736 -15.976023 33.851250 -1.590056 41.560429 -4.089809 -6.673383 -23.617579 
19.995884 22.721600 11.561401 121.001572 -0.000273 -167.007980 13.434498 -0.001640 -8.001630 25.336412 -0.001730 -6.451079 13.997026 -3.174619 0.000022 -1.353790 -0.431726 5.225007 2.133242 -4.497911 1.942207 -52.101860 1.801295 54.976032 -18.531775 0.454303 35.980930 2.779058 4.383557 -5.227018 1.276016 19.343191 -0.982015 36.582432 -1.899096 55.035149 148.793610 -36.108635 12.975821 46.833168 -0.699337 -9.732500 -82.508057 8.348829 30.967781 33.325722 1.540205 -41.596474 -3.841290 5.887718 21.580156 -80.272697 11.589978 -15.975824 33.851250 -1.590055 41.560425 -4.089809 -6.673383 -23.617580 
19.995884 22.721600 11.561401 121.001572 -0.000273 -167.007980 12.655722 -0.001723 -8.001675 27.068991 -0.001679 -6.450965 13.997028 -3.572832 0.000025 -1.506716 -0.479334 5.809833 1.456126 -4.015080 1.332346 -52.394318 1.833111 54.975731 -18.531775 0.454304 35.980934 2.937970 4.467174 -5.888939 1.276016 19.343195 -0.982015 36.582432 -1.899096 55.035149 148.293030 -36.108551 12.975821 46.833176 -0.699336 -9.732501 -83.008369 8.348763 30.967791 33.325722 1.540205 -41.596474 -3.841290 5.887719 21.580154 -80.716583 11.590222 -15.975623 33.851250 -1.590056 41.560429 -4.089810 -6.673384 -23.617580 
19.995884 22.721600 11.561401 121.001572 -0.000273 -167.007980 11.876941 -0.001807 -8.001716 28.801569 -0.001632 -6.450850 13.997029 -3.971322 0.000028 -1.660371 -0.525452 6.395743 0.784575 -3.525124 0.728586 -52.686787 1.864924 54.975258 -18.531773 0.454304 35.980930 3.095920 4.552616 -6.550700 1.276016 19.343191 -0.982015 36.582432 -1.899097 55.035149 147.792450 -36.108475 12.975826 46.833168 -0.699337 -9.732500 -83.508682 8.348700 30.967808 33.325722 1.540205 -41.596474 -3.841290 5.887718 21.580153 -81.160492 11.590468 -15.975430 33.851250 -1.590056 41.560421 -4.089809 -6.673383 -23.617577 
19.995884 22.721600 11.561401 121.001572 -0.000273 -167.007980 11.098237 -0.001892 -8.001757 30.533354 -0.001588 -6.450733 13.997033 -4.370080 0.000030 -1.814734 -0.570065 6.982703 0.118665 -3.028248 0.131006 -52.979256 1.896737 54.974628 -18.531773 0.454304 35.980930 3.252877 4.639863 -7.212253 1.276016 19.343191 -0.982015 36.582432 -1.899097 55.035149 147.291916 -36.108398 12.975831 46.833168 -0.699337 -9.732500 -84.008965 8.348637 30.967819 33.325718 1.540204 -41.596474 -3.841290 5.887718 21.580153 -81.604370 11.590714 -15.975232 33.851250 -1.590057 41.560421 -4.089809 -6.673383 -23.617579 
19.995884 22.721600 11.561401 121.001572 -0.000273 -167.007980 10.319676 -0.001977 -8.001799 32.263561 -0.001548 -6.450615 13.997036 -4.769096 0.000033 -1.969784 -0.613158 7.570680 -0.541541 -2.524653 -0.460321 -53.271706 1.928541 54.973827 -18.531773 0.454304 35.980930 3.408809 4.728898 -7.873552 1.276016 19.343191 -0.982015 36.582432 -1.899097 55.035149 146.791382 -36.108318 12.975834 46.833168 -0.699337 -9.732500 -84.509224 8.348570 30.967836 33.325722 1.540205 -41.596474 -3.841290 5.887718 21.580154 -82.048225 11.590962 -15.975039 33.851250 -1.590056 41.560421 -4.089809 -6.673383 -23.617579 
19.995884 22.721600 11.561401 121.001572 -0.000273 -167.007980 9.541329 -0.002062 -8.001837 33.991402 -0.001512 -6.450496 13.997042 -5.168363 0.000036 -2.125498 -0.654718 8.159640 -1.195980 -2.014549 -1.045328 -53.564178 1.960343 54.972878 -18.531775 0.454303 35.980930 3.563686 4.819700 -8.534541 1.276016 19.343191 -0.982015 36.582432 -1.899096 55.035149 146.290939 -36.108250 12.975843 46.833168 -0.699337 -9.732500 -85.009422 8.348509 30.967850 33.325722 1.540205 -41.596474 -3.841290 5.887719 21.580154 -82.492058 11.591210 -15.974850 33.851250 -1.590056 41.560421 -4.089809 -6.673383 -23.617579 
